<svg xmlns="http://www.w3.org/2000/svg" viewBox="0 0 512 512" width="100%" height="100%">
  <rect width="100%" height="100%" rx="120" fill="#0b0f19" />
  <circle cx="256" cy="256" r="160" fill="url(#grad)" opacity="0.15" />
  <defs>
    <linearGradient id="grad" x1="0%" y1="0%" x2="100%" y2="100%">
      <stop offset="0%" stop-color="#8b5cf6" />
      <stop offset="100%" stop-color="#d946ef" />
    </linearGradient>
  </defs>
  <!-- Brain symbol left lobe -->
  <path d="M256,120 C220,120 180,140 170,180 C150,185 140,210 150,230 C135,245 135,275 150,290 C140,310 150,335 170,340 C180,380 220,400 256,400 C256,380 256,140 256,120 Z" fill="url(#grad)" />
  <!-- Brain symbol right lobe -->
  <path d="M256,120 C292,120 332,140 343,180 C363,185 373,210 363,230 C378,245 378,275 363,290 C373,310 363,335 343,340 C332,380 292,400 256,400 C256,380 256,140 256,120 Z" fill="url(#grad)" opacity="0.8" />
  {/* Center divider seam */}
  <line x1="256" y1="120" x2="256" y2="400" stroke="#0b0f19" stroke-width="8" />
</svg>
